<svg width="1080" height="1080" viewBox="0 0 1080 1080" fill="none" xmlns="http://www.w3.org/2000/svg">
<rect width="1080" height="1080" fill="#50DA4B"/>
<path d="M201.928 354.152C201.928 301.049 244.898 258 297.904 258H788.218C841.224 258 884.194 301.049 884.194 354.152V709.497C884.194 762.6 841.224 805.649 788.218 805.649H297.904C244.898 805.649 201.928 762.6 201.928 709.497V354.152Z" fill="#3F013F"/>
<path d="M492.579 536.414C492.579 587.105 451.486 628.198 400.794 628.198C350.103 628.198 309.01 587.105 309.01 536.414C309.01 485.722 350.103 444.629 400.794 444.629C451.486 444.629 492.579 485.722 492.579 536.414Z" fill="#50DA4B"/>
<path d="M774.052 536.414C774.052 587.105 732.958 628.198 682.267 628.198C631.576 628.198 590.482 587.105 590.482 536.414C590.482 485.722 631.576 444.629 682.267 444.629C732.958 444.629 774.052 485.722 774.052 536.414Z" fill="#50DA4B"/>
<path d="M562.947 940.266L635.976 787.292H835.242L562.947 940.266Z" fill="#40003F"/>
</svg>
