<svg width="1080" height="1080" viewBox="0 0 1080 1080" fill="none" xmlns="http://www.w3.org/2000/svg">
<rect width="1080" height="1080" fill="#FFE0DB"/>
<path d="M946.573 716.134C946.573 716.134 750.251 813.226 539.631 710.27C526.625 538.242 602.472 483.288 651.444 458.092C726.201 519.996 816.561 483.506 836.714 458.092C965.689 539.936 946.573 645.107 946.573 716.134Z" fill="#3C46FF"/>
<path fill-rule="evenodd" clip-rule="evenodd" d="M518.558 722.416L517.709 711.196C510.941 621.796 527.154 560.496 553.363 517.655C579.562 474.832 614.431 452.642 640.664 439.162L652.145 433.263L662.095 441.491C694.779 468.522 730.549 474.018 760.714 470.029C775.908 468.021 789.502 463.61 800.213 458.441C811.313 453.084 817.917 447.602 820.452 444.408L831.405 430.615L846.277 440.04C915.239 483.746 945.959 534.852 958.607 585.413C968.237 623.91 967.128 662.319 966.243 693.004C966.008 701.123 965.79 708.702 965.79 715.599V727.797L954.863 733.194L946.192 715.599C946.192 707.782 946.423 699.553 946.663 690.988C948.615 621.445 951.189 529.751 835.794 456.617C815.542 482.123 724.738 518.747 649.613 456.617C600.4 481.905 524.181 537.058 537.251 709.713C748.905 813.044 946.192 715.599 946.192 715.599C954.863 733.194 954.855 733.198 954.846 733.202L954.825 733.213L954.769 733.24L954.602 733.322C954.466 733.388 954.283 733.476 954.052 733.586C953.591 733.806 952.941 734.112 952.107 734.496C950.44 735.263 948.037 736.339 944.945 737.651C938.761 740.273 929.807 743.84 918.443 747.76C895.734 755.594 863.29 764.874 824.015 770.806C745.484 782.666 638.996 781.214 528.661 727.348L518.558 722.416Z" fill="#FFE0DB"/>
<path d="M862.375 345.434C862.375 410.689 809.475 463.588 744.221 463.588C678.966 463.588 626.066 410.689 626.066 345.434C626.066 280.179 678.966 227.28 744.221 227.28C809.475 227.28 862.375 280.179 862.375 345.434Z" fill="#3C46FF"/>
<path fill-rule="evenodd" clip-rule="evenodd" d="M881.627 346.808C881.627 423.444 820.116 485.57 744.238 485.57C668.361 485.57 606.85 423.444 606.85 346.808C606.85 270.171 668.361 208.045 744.238 208.045C820.116 208.045 881.627 270.171 881.627 346.808ZM744.238 465.934C809.378 465.934 862.185 412.599 862.185 346.808C862.185 281.016 809.378 227.681 744.238 227.681C679.098 227.681 626.291 281.016 626.291 346.808C626.291 412.599 679.098 465.934 744.238 465.934Z" fill="#FFE0DB"/>
<path d="M534.395 716.134C534.395 716.134 338.073 813.226 127.453 710.27C114.447 538.242 190.294 483.288 239.266 458.092C314.023 519.996 404.384 483.506 424.537 458.092C553.511 539.936 534.395 645.107 534.395 716.134Z" fill="#3C46FF"/>
<path fill-rule="evenodd" clip-rule="evenodd" d="M109.123 722.416L108.273 711.196C101.506 621.796 117.719 560.496 143.928 517.655C170.126 474.832 204.995 452.642 231.228 439.162L242.709 433.263L252.659 441.491C285.344 468.522 321.113 474.018 351.279 470.029C366.472 468.021 380.067 463.61 390.778 458.441C401.877 453.084 408.481 447.602 411.017 444.409L421.969 430.615L436.841 440.04C505.803 483.746 536.524 534.852 549.171 585.413C558.801 623.91 557.693 662.319 556.807 693.004C556.573 701.124 556.354 708.703 556.354 715.599V727.797L545.428 733.194L536.756 715.599C536.756 707.782 536.987 699.553 537.228 690.988C539.18 621.445 541.754 529.751 426.358 456.617C406.106 482.123 315.302 518.747 240.177 456.617C190.965 481.905 114.745 537.059 127.815 709.713C339.47 813.044 536.756 715.599 536.756 715.599C545.428 733.194 545.419 733.198 545.411 733.202L545.389 733.213L545.333 733.24L545.166 733.322C545.031 733.388 544.847 733.476 544.617 733.586C544.156 733.806 543.506 734.112 542.672 734.496C541.004 735.263 538.602 736.339 535.509 737.651C529.325 740.273 520.371 743.84 509.008 747.76C486.298 755.594 453.855 764.874 414.58 770.806C336.049 782.666 229.56 781.214 119.225 727.348L109.123 722.416Z" fill="#FFE0DB"/>
<path d="M452.951 345.434C452.951 410.689 399.436 463.588 333.423 463.588C267.409 463.588 213.895 410.689 213.895 345.434C213.895 280.179 267.409 227.28 333.423 227.28C399.436 227.28 452.951 280.179 452.951 345.434Z" fill="#3C46FF"/>
<path fill-rule="evenodd" clip-rule="evenodd" d="M472.189 346.808C472.189 423.444 410.063 485.57 333.426 485.57C256.79 485.57 194.664 423.444 194.664 346.808C194.664 270.171 256.79 208.045 333.426 208.045C410.063 208.045 472.189 270.171 472.189 346.808ZM333.426 465.934C399.218 465.934 452.553 412.599 452.553 346.808C452.553 281.016 399.218 227.682 333.426 227.682C267.635 227.682 214.3 281.016 214.3 346.808C214.3 412.599 267.635 465.934 333.426 465.934Z" fill="#FFE0DB"/>
<path d="M740.467 872.757C740.467 872.757 544.145 969.848 333.526 866.892C320.519 694.864 396.366 639.911 445.338 614.715C520.096 676.619 610.456 640.128 630.609 614.715C759.583 696.558 740.467 801.73 740.467 872.757Z" fill="#3C46FF"/>
<path fill-rule="evenodd" clip-rule="evenodd" d="M315.181 881.786L314.336 870.566C307.61 781.166 323.724 719.866 349.773 677.026C375.812 634.202 410.468 612.012 436.541 598.532L447.953 592.633L457.841 600.861C490.327 627.892 525.878 633.388 555.86 629.4C570.961 627.391 584.472 622.98 595.118 617.811C606.15 612.454 612.714 606.972 615.234 603.779L626.119 589.985L640.9 599.41C709.442 643.116 739.975 694.222 752.546 744.783C762.117 783.281 761.015 821.689 760.135 852.374C759.902 860.494 759.685 868.073 759.685 874.969V887.167L748.825 892.564L740.206 874.969C740.206 867.152 740.436 858.923 740.675 850.358C742.615 780.815 745.173 689.122 630.482 615.987C610.353 641.493 520.103 678.117 445.436 615.987C396.523 641.275 320.769 696.429 333.759 869.083C544.123 972.415 740.206 874.969 740.206 874.969C748.825 892.564 748.817 892.568 748.808 892.572L748.787 892.583L748.731 892.611L748.565 892.692C748.43 892.758 748.248 892.846 748.019 892.956C747.561 893.176 746.915 893.483 746.086 893.866C744.429 894.633 742.041 895.709 738.967 897.021C732.821 899.643 723.921 903.21 712.627 907.13C690.056 914.964 657.81 924.244 618.775 930.176C540.723 942.036 434.883 940.584 325.221 886.718L315.181 881.786Z" fill="#FFE0DB"/>
<path d="M659.023 504.804C659.023 570.059 605.508 622.958 539.495 622.958C473.481 622.958 419.967 570.059 419.967 504.804C419.967 439.549 473.481 386.65 539.495 386.65C605.508 386.65 659.023 439.549 659.023 504.804Z" fill="#3C46FF"/>
<path fill-rule="evenodd" clip-rule="evenodd" d="M678.261 504.804C678.261 580.682 616.135 642.193 539.499 642.193C462.862 642.193 400.736 580.682 400.736 504.804C400.736 428.926 462.862 367.416 539.499 367.416C616.135 367.416 678.261 428.926 678.261 504.804ZM539.499 622.751C605.29 622.751 658.625 569.944 658.625 504.804C658.625 439.664 605.29 386.857 539.499 386.857C473.707 386.857 420.373 439.664 420.373 504.804C420.373 569.944 473.707 622.751 539.499 622.751Z" fill="#FFE0DB"/>
</svg>
