<svg width="298" height="62" viewBox="0 0 298 62" fill="none" xmlns="http://www.w3.org/2000/svg">
<path d="M22 23H46V31H22V23Z" fill="black"/>
<path fill-rule="evenodd" clip-rule="evenodd" d="M39.4953 25.2925C39.4953 34.1704 32.4657 41.3673 23.7943 41.3673C15.1229 41.3673 8.0933 34.1704 8.0933 25.2925C8.0933 16.4146 15.1229 9.21764 23.7943 9.21764C30.0331 9.21764 35.422 12.943 37.9546 18.3395L45.8692 16.183C42.3457 7.24159 33.7898 0.931641 23.7943 0.931641C10.6531 0.931641 0 11.8384 0 25.2925C0 38.7466 10.6531 49.6533 23.7943 49.6533C36.9355 49.6533 47.5886 38.7466 47.5886 25.2925C47.5886 24.4435 47.5334 23.8266 47.4506 23H39.5C39.6257 23.8192 39.4953 24.4371 39.4953 25.2925Z" fill="black"/>
<path d="M276.447 30.2629C277.261 28.5458 278.511 27.145 280.198 26.0605C281.915 24.9761 283.933 24.4338 286.253 24.4338C288.512 24.4338 290.531 24.961 292.308 26.0154C294.085 27.0396 295.471 28.5157 296.465 30.4437C297.49 32.3415 298.002 34.5557 298.002 37.0862C298.002 39.6166 297.49 41.8458 296.465 43.7738C295.471 45.7018 294.07 47.193 292.263 48.2473C290.486 49.3017 288.482 49.8289 286.253 49.8289C283.903 49.8289 281.87 49.3017 280.153 48.2473C278.466 47.1628 277.231 45.762 276.447 44.0449V49.4674H273.33V16.0291H276.447V30.2629ZM294.793 37.0862C294.793 35.0377 294.387 33.2754 293.573 31.7993C292.79 30.2931 291.706 29.1483 290.32 28.3651C288.934 27.5818 287.368 27.1902 285.62 27.1902C283.933 27.1902 282.382 27.5969 280.966 28.4103C279.58 29.2236 278.481 30.3834 277.668 31.8897C276.854 33.3959 276.447 35.1431 276.447 37.1313C276.447 39.1196 276.854 40.8668 277.668 42.373C278.481 43.8793 279.58 45.0391 280.966 45.8524C282.382 46.6658 283.933 47.0725 285.62 47.0725C287.368 47.0725 288.934 46.6809 290.32 45.8976C291.706 45.0842 292.79 43.9244 293.573 42.4182C294.387 40.8819 294.793 39.1045 294.793 37.0862Z" fill="black"/>
<path d="M267.089 35.8686C267.089 36.9531 267.059 37.7815 266.999 38.3539H246.529C246.619 40.2216 247.071 41.8182 247.885 43.1437C248.698 44.4692 249.767 45.4783 251.093 46.1712C252.418 46.8339 253.864 47.1653 255.431 47.1653C257.479 47.1653 259.196 46.6682 260.582 45.6741C261.998 44.68 262.932 43.3395 263.384 41.6525H266.728C266.125 44.0625 264.83 46.0356 262.842 47.572C260.883 49.0782 258.413 49.8313 255.431 49.8313C253.111 49.8313 251.033 49.3192 249.195 48.295C247.358 47.2406 245.912 45.7645 244.857 43.8667C243.833 41.9387 243.321 39.6944 243.321 37.1338C243.321 34.5732 243.833 32.3289 244.857 30.401C245.881 28.473 247.312 26.9969 249.15 25.9726C250.988 24.9484 253.081 24.4363 255.431 24.4363C257.781 24.4363 259.829 24.9484 261.576 25.9726C263.354 26.9969 264.709 28.3826 265.643 30.1298C266.607 31.8469 267.089 33.7598 267.089 35.8686ZM263.881 35.7782C263.911 33.9406 263.534 32.3741 262.751 31.0788C261.998 29.7834 260.959 28.8043 259.633 28.1416C258.308 27.4789 256.862 27.1475 255.295 27.1475C252.946 27.1475 250.942 27.9006 249.285 29.4068C247.629 30.9131 246.71 33.0369 246.529 35.7782H263.881Z" fill="black"/>
<path d="M239.478 17.8835L230.531 49.4692H227.007L219.054 22.5378L210.92 49.4692L207.486 49.5144L198.72 17.8835H202.109L209.339 45.5831L217.427 17.8835H220.952L228.814 45.5831L236.089 17.8835H239.478Z" fill="black"/>
<path d="M183.859 24.3434C185.727 24.3434 187.399 24.7351 188.875 25.5183C190.381 26.3015 191.556 27.5065 192.4 29.1333C193.273 30.7299 193.71 32.688 193.71 35.0076V49.4674H190.592V35.3691C190.592 32.688 189.914 30.6395 188.559 29.2236C187.233 27.8078 185.411 27.0998 183.091 27.0998C180.711 27.0998 178.814 27.853 177.398 29.3592C175.982 30.8654 175.274 33.0796 175.274 36.0017V49.4674H172.111V16.0291H175.274V28.9977C176.057 27.5216 177.202 26.3769 178.708 25.5635C180.244 24.7501 181.962 24.3434 183.859 24.3434Z" fill="black"/>
<path d="M142.5 37.1338C142.5 34.5732 143.013 32.344 144.037 30.4461C145.061 28.5182 146.477 27.0421 148.284 26.0178C150.092 24.9635 152.155 24.4363 154.475 24.4363C157.518 24.4363 160.018 25.1894 161.976 26.6956C163.964 28.2019 165.245 30.2503 165.817 32.841H162.428C162.006 31.0637 161.087 29.678 159.672 28.6839C158.286 27.6596 156.554 27.1475 154.475 27.1475C152.818 27.1475 151.327 27.5241 150.002 28.2772C148.676 29.0303 147.622 30.16 146.838 31.6662C146.085 33.1423 145.709 34.9648 145.709 37.1338C145.709 39.3028 146.085 41.1404 146.838 42.6466C147.622 44.1528 148.676 45.2825 150.002 46.0356C151.327 46.7887 152.818 47.1653 154.475 47.1653C156.554 47.1653 158.286 46.6682 159.672 45.6741C161.087 44.6499 162.006 43.234 162.428 41.4266H165.817C165.245 43.957 163.964 45.9904 161.976 47.5268C159.988 49.0632 157.487 49.8313 154.475 49.8313C152.155 49.8313 150.092 49.3192 148.284 48.295C146.477 47.2406 145.061 45.7645 144.037 43.8667C143.013 41.9387 142.5 39.6944 142.5 37.1338Z" fill="black"/>
<path d="M134.744 20.1433C134.112 20.1433 133.57 19.9173 133.118 19.4655C132.666 19.0136 132.44 18.4563 132.44 17.7935C132.44 17.1308 132.666 16.5886 133.118 16.1668C133.57 15.7149 134.112 15.489 134.744 15.489C135.377 15.489 135.919 15.7149 136.371 16.1668C136.823 16.5886 137.049 17.1308 137.049 17.7935C137.049 18.4563 136.823 19.0136 136.371 19.4655C135.919 19.9173 135.377 20.1433 134.744 20.1433ZM136.326 24.7975V49.4696H133.163V24.7975H136.326Z" fill="black"/>
<path d="M105.342 30.2202C106.125 28.5634 107.36 27.1927 109.047 26.1082C110.764 24.9936 112.797 24.4363 115.147 24.4363C117.376 24.4363 119.38 24.9635 121.157 26.0178C122.964 27.0421 124.365 28.5182 125.359 30.4461C126.384 32.344 126.896 34.5581 126.896 37.0886C126.896 39.6191 126.384 41.8483 125.359 43.7763C124.365 45.7043 122.964 47.1954 121.157 48.2498C119.38 49.3042 117.376 49.8313 115.147 49.8313C112.827 49.8313 110.809 49.2891 109.092 48.2046C107.375 47.09 106.125 45.7043 105.342 44.0474V61.1281H102.224V24.7978H105.342V30.2202ZM123.687 37.0886C123.687 35.0401 123.281 33.2779 122.467 31.8017C121.684 30.2955 120.6 29.1508 119.214 28.3675C117.828 27.5843 116.262 27.1927 114.514 27.1927C112.827 27.1927 111.276 27.5994 109.86 28.4127C108.474 29.2261 107.375 30.3859 106.562 31.8921C105.748 33.3984 105.342 35.1456 105.342 37.1338C105.342 39.122 105.748 40.8693 106.562 42.3755C107.375 43.8817 108.474 45.0415 109.86 45.8549C111.276 46.6682 112.827 47.0749 114.514 47.0749C116.262 47.0749 117.828 46.6833 119.214 45.9001C120.6 45.0867 121.684 43.9269 122.467 42.4207C123.281 40.8843 123.687 39.107 123.687 37.0886Z" fill="black"/>
<path d="M69.834 37.0886C69.834 34.5581 70.331 32.344 71.3252 30.4461C72.3494 28.5182 73.7502 27.0421 75.5275 26.0178C77.335 24.9635 79.3684 24.4363 81.6278 24.4363C83.9775 24.4363 85.9958 24.9785 87.6828 26.063C89.3999 27.1475 90.635 28.5332 91.3881 30.2202V24.7978H94.5512V49.4698H91.3881V44.0022C90.6049 45.6892 89.3547 47.09 87.6376 48.2046C85.9507 49.2891 83.9323 49.8313 81.5826 49.8313C79.3534 49.8313 77.335 49.3042 75.5275 48.2498C73.7502 47.1954 72.3494 45.7043 71.3252 43.7763C70.331 41.8483 69.834 39.6191 69.834 37.0886ZM91.3881 37.1338C91.3881 35.1456 90.9815 33.3984 90.1681 31.8921C89.3547 30.3859 88.2401 29.2261 86.8243 28.4127C85.4385 27.5994 83.9022 27.1927 82.2152 27.1927C80.468 27.1927 78.9015 27.5843 77.5158 28.3675C76.13 29.1508 75.0305 30.2955 74.2171 31.8017C73.4339 33.2779 73.0423 35.0401 73.0423 37.0886C73.0423 39.107 73.4339 40.8843 74.2171 42.4207C75.0305 43.9269 76.13 45.0867 77.5158 45.9001C78.9015 46.6833 80.468 47.0749 82.2152 47.0749C83.9022 47.0749 85.4385 46.6682 86.8243 45.8549C88.2401 45.0415 89.3547 43.8817 90.1681 42.3755C90.9815 40.8693 91.3881 39.122 91.3881 37.1338Z" fill="black"/>
<path d="M57.6167 29.1827C58.3096 27.6463 59.3639 26.4564 60.7798 25.6129C62.2258 24.7694 63.9881 24.3477 66.0667 24.3477V27.6463H65.2081C62.9186 27.6463 61.081 28.2639 59.6953 29.499C58.3096 30.7341 57.6167 32.7976 57.6167 35.6896V49.4716H54.4536V24.7995H57.6167V29.1827Z" fill="black"/>
</svg>
