<svg width="298" height="61" viewBox="0 0 298 61" fill="none" xmlns="http://www.w3.org/2000/svg">
<path d="M22 22.0684H46V30.0684H22V22.0684Z" fill="#0000FF"/>
<path fill-rule="evenodd" clip-rule="evenodd" d="M39.4953 24.3608C39.4953 33.2387 32.4657 40.4357 23.7943 40.4357C15.1229 40.4357 8.0933 33.2387 8.0933 24.3608C8.0933 15.483 15.1229 8.286 23.7943 8.286C30.0331 8.286 35.422 12.0114 37.9546 17.4078L45.8692 15.2514C42.3457 6.30995 33.7898 0 23.7943 0C10.6531 0 0 10.9067 0 24.3608C0 37.815 10.6531 48.7217 23.7943 48.7217C36.9355 48.7217 47.5886 37.815 47.5886 24.3608C47.5886 23.5119 47.5334 22.8949 47.4506 22.0684H39.5C39.6257 22.8876 39.4953 23.5055 39.4953 24.3608Z" fill="#0000FF"/>
<path d="M276.446 29.3313C277.259 27.6142 278.51 26.2134 280.197 25.1289C281.914 24.0444 283.932 23.5022 286.252 23.5022C288.511 23.5022 290.529 24.0294 292.307 25.0837C294.084 26.108 295.47 27.5841 296.464 29.512C297.488 31.4099 298 33.624 298 36.1545C298 38.685 297.488 40.9142 296.464 42.8422C295.47 44.7702 294.069 46.2613 292.261 47.3157C290.484 48.3701 288.481 48.8972 286.252 48.8972C283.902 48.8972 281.868 48.3701 280.151 47.3157C278.464 46.2312 277.229 44.8304 276.446 43.1133V48.5357H273.328V15.0974H276.446V29.3313ZM294.792 36.1545C294.792 34.106 294.385 32.3438 293.572 30.8676C292.789 29.3614 291.704 28.2167 290.318 27.4334C288.933 26.6502 287.366 26.2586 285.619 26.2586C283.932 26.2586 282.381 26.6653 280.965 27.4786C279.579 28.292 278.479 29.4518 277.666 30.958C276.853 32.4643 276.446 34.2115 276.446 36.1997C276.446 38.1879 276.853 39.9352 277.666 41.4414C278.479 42.9476 279.579 44.1074 280.965 44.9208C282.381 45.7341 283.932 46.1408 285.619 46.1408C287.366 46.1408 288.933 45.7492 290.318 44.966C291.704 44.1526 292.789 42.9928 293.572 41.4866C294.385 39.9502 294.792 38.1729 294.792 36.1545Z" fill="#0000FF"/>
<path d="M267.089 34.9369C267.089 36.0214 267.059 36.8498 266.998 37.4222H246.529C246.619 39.2899 247.071 40.8865 247.884 42.212C248.698 43.5375 249.767 44.5467 251.092 45.2395C252.418 45.9023 253.864 46.2337 255.43 46.2337C257.479 46.2337 259.196 45.7366 260.582 44.7425C261.998 43.7484 262.931 42.4078 263.383 40.7209H266.727C266.125 43.1308 264.829 45.104 262.841 46.6403C260.883 48.1466 258.413 48.8997 255.43 48.8997C253.111 48.8997 251.032 48.3876 249.195 47.3633C247.357 46.309 245.911 44.8329 244.857 42.935C243.832 41.007 243.32 38.7628 243.32 36.2022C243.32 33.6416 243.832 31.3973 244.857 29.4693C245.881 27.5413 247.312 26.0652 249.149 25.041C250.987 24.0168 253.081 23.5046 255.43 23.5046C257.78 23.5046 259.829 24.0168 261.576 25.041C263.353 26.0652 264.709 27.451 265.643 29.1982C266.607 30.9153 267.089 32.8282 267.089 34.9369ZM263.88 34.8466C263.91 33.009 263.534 31.4425 262.751 30.1471C261.998 28.8518 260.958 27.8727 259.633 27.21C258.307 26.5472 256.861 26.2159 255.295 26.2159C252.945 26.2159 250.942 26.969 249.285 28.4752C247.628 29.9814 246.709 32.1052 246.529 34.8466H263.88Z" fill="#0000FF"/>
<path d="M239.477 16.9519L230.53 48.5376H227.006L219.053 21.6062L210.919 48.5376L207.485 48.5828L198.719 16.9519H202.108L209.338 44.6515L217.426 16.9519H220.951L228.813 44.6515L236.088 16.9519H239.477Z" fill="#0000FF"/>
<path d="M183.858 23.4118C185.726 23.4118 187.398 23.8034 188.874 24.5867C190.38 25.3699 191.555 26.5749 192.398 28.2016C193.272 29.7982 193.709 31.7563 193.709 34.0759V48.5357H190.591V34.4374C190.591 31.7563 189.913 29.7079 188.557 28.292C187.232 26.8761 185.409 26.1682 183.09 26.1682C180.71 26.1682 178.812 26.9213 177.396 28.4276C175.98 29.9338 175.272 32.1479 175.272 35.07V48.5357H172.109V15.0974H175.272V28.0661C176.056 26.59 177.2 25.4452 178.707 24.6319C180.243 23.8185 181.96 23.4118 183.858 23.4118Z" fill="#0000FF"/>
<path d="M142.5 36.2022C142.5 33.6416 143.012 31.4124 144.036 29.5145C145.061 27.5865 146.476 26.1104 148.284 25.0862C150.091 24.0318 152.155 23.5046 154.475 23.5046C157.517 23.5046 160.017 24.2578 161.976 25.764C163.964 27.2702 165.244 29.3187 165.816 31.9094H162.427C162.006 30.1321 161.087 28.7463 159.671 27.7522C158.285 26.728 156.553 26.2159 154.475 26.2159C152.818 26.2159 151.327 26.5924 150.001 27.3455C148.676 28.0986 147.621 29.2283 146.838 30.7345C146.085 32.2107 145.708 34.0332 145.708 36.2022C145.708 38.3711 146.085 40.2087 146.838 41.715C147.621 43.2212 148.676 44.3509 150.001 45.104C151.327 45.8571 152.818 46.2337 154.475 46.2337C156.553 46.2337 158.285 45.7366 159.671 44.7425C161.087 43.7183 162.006 42.3024 162.427 40.4949H165.816C165.244 43.0254 163.964 45.0588 161.976 46.5952C159.987 48.1315 157.487 48.8997 154.475 48.8997C152.155 48.8997 150.091 48.3876 148.284 47.3633C146.476 46.309 145.061 44.8329 144.036 42.935C143.012 41.007 142.5 38.7628 142.5 36.2022Z" fill="#0000FF"/>
<path d="M134.305 19.6543C133.672 19.6543 133.13 19.4283 132.678 18.9764C132.226 18.5246 132 17.9673 132 17.3045C132 16.6418 132.226 16.0995 132.678 15.6778C133.13 15.2259 133.672 15 134.305 15C134.937 15 135.479 15.2259 135.931 15.6778C136.383 16.0995 136.609 16.6418 136.609 17.3045C136.609 17.9673 136.383 18.5246 135.931 18.9764C135.479 19.4283 134.937 19.6543 134.305 19.6543ZM135.886 24.3085V48.9806H132.723V24.3085H135.886Z" fill="#0000FF"/>
<path d="M105.341 29.2886C106.124 27.6317 107.359 26.261 109.046 25.1766C110.763 24.0619 112.796 23.5046 115.146 23.5046C117.375 23.5046 119.379 24.0318 121.156 25.0862C122.963 26.1104 124.364 27.5865 125.358 29.5145C126.383 31.4124 126.895 33.6265 126.895 36.157C126.895 38.6874 126.383 40.9167 125.358 42.8446C124.364 44.7726 122.963 46.2638 121.156 47.3181C119.379 48.3725 117.375 48.8997 115.146 48.8997C112.827 48.8997 110.808 48.3574 109.091 47.273C107.374 46.1584 106.124 44.7726 105.341 43.1158V60.1964H102.223V23.8661H105.341V29.2886ZM123.686 36.157C123.686 34.1085 123.28 32.3462 122.466 30.8701C121.683 29.3639 120.599 28.2191 119.213 27.4359C117.827 26.6527 116.261 26.261 114.513 26.261C112.827 26.261 111.275 26.6677 109.859 27.4811C108.474 28.2945 107.374 29.4542 106.561 30.9605C105.747 32.4667 105.341 34.2139 105.341 36.2022C105.341 38.1904 105.747 39.9376 106.561 41.4438C107.374 42.9501 108.474 44.1099 109.859 44.9232C111.275 45.7366 112.827 46.1433 114.513 46.1433C116.261 46.1433 117.827 45.7517 119.213 44.9684C120.599 44.1551 121.683 42.9953 122.466 41.489C123.28 39.9527 123.686 38.1753 123.686 36.157Z" fill="#0000FF"/>
<path d="M69.834 36.157C69.834 33.6265 70.331 31.4124 71.3252 29.5145C72.3494 27.5865 73.7502 26.1104 75.5275 25.0862C77.335 24.0318 79.3684 23.5046 81.6278 23.5046C83.9775 23.5046 85.9958 24.0469 87.6828 25.1314C89.3999 26.2159 90.635 27.6016 91.3881 29.2886V23.8661H94.5512V48.5382H91.3881V43.0706C90.6049 44.7576 89.3547 46.1584 87.6376 47.273C85.9507 48.3574 83.9323 48.8997 81.5826 48.8997C79.3534 48.8997 77.335 48.3725 75.5275 47.3181C73.7502 46.2638 72.3494 44.7726 71.3252 42.8446C70.331 40.9167 69.834 38.6874 69.834 36.157ZM91.3881 36.2022C91.3881 34.2139 90.9815 32.4667 90.1681 30.9605C89.3547 29.4542 88.2401 28.2945 86.8243 27.4811C85.4385 26.6677 83.9022 26.261 82.2152 26.261C80.468 26.261 78.9015 26.6527 77.5158 27.4359C76.13 28.2191 75.0305 29.3639 74.2171 30.8701C73.4339 32.3462 73.0423 34.1085 73.0423 36.157C73.0423 38.1753 73.4339 39.9527 74.2171 41.489C75.0305 42.9953 76.13 44.1551 77.5158 44.9684C78.9015 45.7517 80.468 46.1433 82.2152 46.1433C83.9022 46.1433 85.4385 45.7366 86.8243 44.9232C88.2401 44.1099 89.3547 42.9501 90.1681 41.4438C90.9815 39.9376 91.3881 38.1904 91.3881 36.2022Z" fill="#0000FF"/>
<path d="M57.6162 28.251C58.3091 26.7147 59.3634 25.5247 60.7793 24.6813C62.2253 23.8378 63.9876 23.416 66.0662 23.416V26.7147H65.2076C62.9181 26.7147 61.0805 27.3322 59.6948 28.5673C58.3091 29.8024 57.6162 31.866 57.6162 34.7579V48.5399H54.4531V23.8679H57.6162V28.251Z" fill="#0000FF"/>
</svg>
