<svg width="298" height="61" viewBox="0 0 298 61" fill="none" xmlns="http://www.w3.org/2000/svg">
<path d="M21.5273 22.6621H40.7894V30.5935H21.5273V22.6621Z" fill="white"/>
<path fill-rule="evenodd" clip-rule="evenodd" d="M39.4953 24.3608C39.4953 33.2387 32.4657 40.4357 23.7943 40.4357C15.1229 40.4357 8.0933 33.2387 8.0933 24.3608C8.0933 15.483 15.1229 8.286 23.7943 8.286C30.0331 8.286 35.422 12.0114 37.9546 17.4078L45.8692 15.2514C42.3457 6.30995 33.7898 0 23.7943 0C10.6531 0 0 10.9067 0 24.3608C0 37.815 10.6531 48.7217 23.7943 48.7217C36.9355 48.7217 47.5886 37.815 47.5886 24.3608C47.5886 23.5119 47.5462 22.6731 47.4634 21.8465H39.3044C39.4301 22.6657 39.4953 23.5055 39.4953 24.3608Z" fill="white"/>
<path d="M276.446 29.3296C277.259 27.6125 278.51 26.2117 280.197 25.1272C281.914 24.0427 283.932 23.5005 286.252 23.5005C288.511 23.5005 290.529 24.0277 292.307 25.082C294.084 26.1062 295.47 27.5824 296.464 29.5103C297.488 31.4082 298 33.6223 298 36.1528C298 38.6833 297.488 40.9125 296.464 42.8405C295.47 44.7685 294.069 46.2596 292.261 47.314C290.484 48.3683 288.481 48.8955 286.252 48.8955C283.902 48.8955 281.868 48.3683 280.151 47.314C278.464 46.2295 277.229 44.8287 276.446 43.1116V48.534H273.328V15.0957H276.446V29.3296ZM294.792 36.1528C294.792 34.1043 294.385 32.342 293.572 30.8659C292.789 29.3597 291.704 28.215 290.318 27.4317C288.933 26.6485 287.366 26.2569 285.619 26.2569C283.932 26.2569 282.381 26.6636 280.965 27.4769C279.579 28.2903 278.479 29.4501 277.666 30.9563C276.853 32.4625 276.446 34.2098 276.446 36.198C276.446 38.1862 276.853 39.9334 277.666 41.4397C278.479 42.9459 279.579 44.1057 280.965 44.9191C282.381 45.7324 283.932 46.1391 285.619 46.1391C287.366 46.1391 288.933 45.7475 290.318 44.9643C291.704 44.1509 292.789 42.9911 293.572 41.4849C294.385 39.9485 294.792 38.1712 294.792 36.1528Z" fill="white"/>
<path d="M267.089 34.9362C267.089 36.0207 267.059 36.8491 266.998 37.4215H246.529C246.619 39.2892 247.071 40.8858 247.884 42.2113C248.698 43.5368 249.767 44.546 251.092 45.2388C252.418 45.9016 253.864 46.2329 255.43 46.2329C257.479 46.2329 259.196 45.7359 260.582 44.7418C261.998 43.7476 262.931 42.4071 263.383 40.7201H266.727C266.125 43.1301 264.829 45.1033 262.841 46.6396C260.883 48.1458 258.413 48.899 255.43 48.899C253.111 48.899 251.032 48.3868 249.195 47.3626C247.357 46.3082 245.911 44.8321 244.857 42.9343C243.832 41.0063 243.32 38.762 243.32 36.2014C243.32 33.6408 243.832 31.3966 244.857 29.4686C245.881 27.5406 247.312 26.0645 249.149 25.0403C250.987 24.016 253.081 23.5039 255.43 23.5039C257.78 23.5039 259.829 24.016 261.576 25.0403C263.353 26.0645 264.709 27.4502 265.643 29.1975C266.607 30.9146 267.089 32.8275 267.089 34.9362ZM263.88 34.8458C263.91 33.0082 263.534 31.4417 262.751 30.1464C261.998 28.851 260.958 27.872 259.633 27.2092C258.307 26.5465 256.861 26.2151 255.295 26.2151C252.945 26.2151 250.942 26.9682 249.285 28.4745C247.628 29.9807 246.709 32.1045 246.529 34.8458H263.88Z" fill="white"/>
<path d="M239.477 16.9512L230.53 48.5368H227.006L219.053 21.6054L210.919 48.5368L207.485 48.582L198.719 16.9512H202.108L209.338 44.6508L217.426 16.9512H220.951L228.813 44.6508L236.088 16.9512H239.477Z" fill="white"/>
<path d="M183.858 23.4101C185.726 23.4101 187.398 23.8017 188.874 24.585C190.38 25.3682 191.555 26.5732 192.398 28.1999C193.272 29.7965 193.709 31.7546 193.709 34.0742V48.534H190.591V34.4357C190.591 31.7546 189.913 29.7061 188.557 28.2903C187.232 26.8744 185.409 26.1665 183.09 26.1665C180.71 26.1665 178.812 26.9196 177.396 28.4258C175.98 29.9321 175.272 32.1462 175.272 35.0683V48.534H172.109V15.0957H175.272V28.0644C176.056 26.5882 177.2 25.4435 178.707 24.6301C180.243 23.8168 181.96 23.4101 183.858 23.4101Z" fill="white"/>
<path d="M142.5 36.2014C142.5 33.6408 143.012 31.4116 144.036 29.5138C145.061 27.5858 146.476 26.1097 148.284 25.0854C150.091 24.0311 152.155 23.5039 154.475 23.5039C157.517 23.5039 160.017 24.257 161.976 25.7633C163.964 27.2695 165.244 29.318 165.816 31.9087H162.427C162.006 30.1313 161.087 28.7456 159.671 27.7515C158.285 26.7272 156.553 26.2151 154.475 26.2151C152.818 26.2151 151.327 26.5917 150.001 27.3448C148.676 28.0979 147.621 29.2276 146.838 30.7338C146.085 32.2099 145.708 34.0325 145.708 36.2014C145.708 38.3704 146.085 40.208 146.838 41.7142C147.621 43.2205 148.676 44.3501 150.001 45.1033C151.327 45.8564 152.818 46.2329 154.475 46.2329C156.553 46.2329 158.285 45.7359 159.671 44.7418C161.087 43.7175 162.006 42.3017 162.427 40.4942H165.816C165.244 43.0247 163.964 45.0581 161.976 46.5944C159.987 48.1308 157.487 48.899 154.475 48.899C152.155 48.899 150.091 48.3868 148.284 47.3626C146.476 46.3082 145.061 44.8321 144.036 42.9343C143.012 41.0063 142.5 38.762 142.5 36.2014Z" fill="white"/>
<path d="M134.746 19.2109C134.113 19.2109 133.571 18.985 133.119 18.5331C132.667 18.0812 132.441 17.5239 132.441 16.8612C132.441 16.1984 132.667 15.6562 133.119 15.2344C133.571 14.7826 134.113 14.5566 134.746 14.5566C135.379 14.5566 135.921 14.7826 136.373 15.2344C136.825 15.6562 137.05 16.1984 137.05 16.8612C137.05 17.5239 136.825 18.0812 136.373 18.5331C135.921 18.985 135.379 19.2109 134.746 19.2109ZM136.327 23.8651V48.5372H133.164V23.8651H136.327Z" fill="white"/>
<path d="M105.341 29.2878C106.124 27.631 107.359 26.2603 109.046 25.1758C110.763 24.0612 112.796 23.5039 115.146 23.5039C117.375 23.5039 119.379 24.0311 121.156 25.0854C122.963 26.1097 124.364 27.5858 125.358 29.5138C126.383 31.4116 126.895 33.6258 126.895 36.1562C126.895 38.6867 126.383 40.9159 125.358 42.8439C124.364 44.7719 122.963 46.2631 121.156 47.3174C119.379 48.3718 117.375 48.899 115.146 48.899C112.827 48.899 110.808 48.3567 109.091 47.2722C107.374 46.1576 106.124 44.7719 105.341 43.115V60.1957H102.223V23.8654H105.341V29.2878ZM123.686 36.1562C123.686 34.1078 123.28 32.3455 122.466 30.8694C121.683 29.3631 120.599 28.2184 119.213 27.4352C117.827 26.6519 116.261 26.2603 114.513 26.2603C112.827 26.2603 111.275 26.667 109.859 27.4804C108.474 28.2937 107.374 29.4535 106.561 30.9597C105.747 32.466 105.341 34.2132 105.341 36.2014C105.341 38.1897 105.747 39.9369 106.561 41.4431C107.374 42.9493 108.474 44.1091 109.859 44.9225C111.275 45.7359 112.827 46.1426 114.513 46.1426C116.261 46.1426 117.827 45.7509 119.213 44.9677C120.599 44.1543 121.683 42.9945 122.466 41.4883C123.28 39.9519 123.686 38.1746 123.686 36.1562Z" fill="white"/>
<path d="M69.832 36.1562C69.832 33.6258 70.3291 31.4116 71.3232 29.5138C72.3474 27.5858 73.7482 26.1097 75.5256 25.0854C77.3331 24.0311 79.3665 23.5039 81.6258 23.5039C83.9755 23.5039 85.9939 24.0461 87.6809 25.1306C89.398 26.2151 90.6331 27.6009 91.3862 29.2878V23.8654H94.5493V48.5375H91.3862V43.0698C90.603 44.7568 89.3528 46.1576 87.6357 47.2722C85.9487 48.3567 83.9304 48.899 81.5806 48.899C79.3514 48.899 77.3331 48.3718 75.5256 47.3174C73.7482 46.2631 72.3474 44.7719 71.3232 42.8439C70.3291 40.9159 69.832 38.6867 69.832 36.1562ZM91.3862 36.2014C91.3862 34.2132 90.9795 32.466 90.1661 30.9597C89.3528 29.4535 88.2382 28.2937 86.8223 27.4804C85.4366 26.667 83.9002 26.2603 82.2132 26.2603C80.466 26.2603 78.8995 26.6519 77.5138 27.4352C76.1281 28.2184 75.0285 29.3631 74.2152 30.8694C73.4319 32.3455 73.0403 34.1078 73.0403 36.1562C73.0403 38.1746 73.4319 39.9519 74.2152 41.4883C75.0285 42.9945 76.1281 44.1543 77.5138 44.9677C78.8995 45.7509 80.466 46.1426 82.2132 46.1426C83.9002 46.1426 85.4366 45.7359 86.8223 44.9225C88.2382 44.1091 89.3528 42.9493 90.1661 41.4431C90.9795 39.9369 91.3862 38.1897 91.3862 36.2014Z" fill="white"/>
<path d="M57.6162 28.251C58.3091 26.7147 59.3634 25.5247 60.7793 24.6813C62.2253 23.8378 63.9876 23.416 66.0662 23.416V26.7147H65.2076C62.9181 26.7147 61.0805 27.3322 59.6948 28.5673C58.3091 29.8024 57.6162 31.866 57.6162 34.7579V48.5399H54.4531V23.8679H57.6162V28.251Z" fill="white"/>
</svg>
