<svg width="184" height="27" viewBox="0 0 184 27" fill="none" xmlns="http://www.w3.org/2000/svg">
<path fill-rule="evenodd" clip-rule="evenodd" d="M3 0C2.44772 0 2 0.447716 2 1V24C2 24.5523 2.44771 25 3 25H42C42.5523 25 43 24.5523 43 24V1C43 0.447715 42.5523 0 42 0H3ZM42 1H3V23H42V1Z" fill="#2D7129"/>
<path d="M0 25H45V26C45 26.5523 44.5523 27 44 27H1C0.447715 27 0 26.5523 0 26V25Z" fill="#2D7129"/>
<path d="M69.56 10.6C69.2 9.90667 68.7 9.38667 68.06 9.04C67.42 8.68 66.68 8.5 65.84 8.5C64.92 8.5 64.1 8.70667 63.38 9.12C62.66 9.53333 62.0933 10.12 61.68 10.88C61.28 11.64 61.08 12.52 61.08 13.52C61.08 14.52 61.28 15.4067 61.68 16.18C62.0933 16.94 62.66 17.5267 63.38 17.94C64.1 18.3533 64.92 18.56 65.84 18.56C67.08 18.56 68.0867 18.2133 68.86 17.52C69.6333 16.8267 70.1067 15.8867 70.28 14.7H65.06V12.88H72.72V14.66C72.5733 15.74 72.1867 16.7333 71.56 17.64C70.9467 18.5467 70.14 19.2733 69.14 19.82C68.1533 20.3533 67.0533 20.62 65.84 20.62C64.5333 20.62 63.34 20.32 62.26 19.72C61.18 19.1067 60.32 18.26 59.68 17.18C59.0533 16.1 58.74 14.88 58.74 13.52C58.74 12.16 59.0533 10.94 59.68 9.86C60.32 8.78 61.18 7.94 62.26 7.34C63.3533 6.72667 64.5467 6.42 65.84 6.42C67.32 6.42 68.6333 6.78667 69.78 7.52C70.94 8.24 71.78 9.26667 72.3 10.6H69.56ZM77.1487 11.08C77.4821 10.52 77.9221 10.0867 78.4688 9.78C79.0288 9.46 79.6887 9.3 80.4487 9.3V11.66H79.8687C78.9754 11.66 78.2954 11.8867 77.8287 12.34C77.3754 12.7933 77.1487 13.58 77.1487 14.7V20.5H74.8687V9.48H77.1487V11.08ZM81.6845 14.94C81.6845 13.8333 81.9112 12.8533 82.3645 12C82.8312 11.1467 83.4579 10.4867 84.2445 10.02C85.0445 9.54 85.9245 9.3 86.8845 9.3C87.7512 9.3 88.5045 9.47333 89.1445 9.82C89.7979 10.1533 90.3179 10.5733 90.7045 11.08V9.48H93.0045V20.5H90.7045V18.86C90.3179 19.38 89.7912 19.8133 89.1245 20.16C88.4579 20.5067 87.6979 20.68 86.8445 20.68C85.8979 20.68 85.0312 20.44 84.2445 19.96C83.4579 19.4667 82.8312 18.7867 82.3645 17.92C81.9112 17.04 81.6845 16.0467 81.6845 14.94ZM90.7045 14.98C90.7045 14.22 90.5445 13.56 90.2245 13C89.9179 12.44 89.5112 12.0133 89.0045 11.72C88.4979 11.4267 87.9512 11.28 87.3645 11.28C86.7779 11.28 86.2312 11.4267 85.7245 11.72C85.2179 12 84.8045 12.42 84.4845 12.98C84.1779 13.5267 84.0245 14.18 84.0245 14.94C84.0245 15.7 84.1779 16.3667 84.4845 16.94C84.8045 17.5133 85.2179 17.9533 85.7245 18.26C86.2445 18.5533 86.7912 18.7 87.3645 18.7C87.9512 18.7 88.4979 18.5533 89.0045 18.26C89.5112 17.9667 89.9179 17.54 90.2245 16.98C90.5445 16.4067 90.7045 15.74 90.7045 14.98ZM98.1792 11.1C98.5659 10.5933 99.0926 10.1667 99.7592 9.82C100.426 9.47333 101.179 9.3 102.019 9.3C102.979 9.3 103.853 9.54 104.639 10.02C105.439 10.4867 106.066 11.1467 106.519 12C106.973 12.8533 107.199 13.8333 107.199 14.94C107.199 16.0467 106.973 17.04 106.519 17.92C106.066 18.7867 105.439 19.4667 104.639 19.96C103.853 20.44 102.979 20.68 102.019 20.68C101.179 20.68 100.433 20.5133 99.7792 20.18C99.1259 19.8333 98.5926 19.4067 98.1792 18.9V25.74H95.8992V9.48H98.1792V11.1ZM104.879 14.94C104.879 14.18 104.719 13.5267 104.399 12.98C104.093 12.42 103.679 12 103.159 11.72C102.653 11.4267 102.106 11.28 101.519 11.28C100.946 11.28 100.399 11.4267 99.8792 11.72C99.3726 12.0133 98.9592 12.44 98.6392 13C98.3326 13.56 98.1792 14.22 98.1792 14.98C98.1792 15.74 98.3326 16.4067 98.6392 16.98C98.9592 17.54 99.3726 17.9667 99.8792 18.26C100.399 18.5533 100.946 18.7 101.519 18.7C102.106 18.7 102.653 18.5533 103.159 18.26C103.679 17.9533 104.093 17.5133 104.399 16.94C104.719 16.3667 104.879 15.7 104.879 14.94ZM115.054 9.3C115.894 9.3 116.641 9.48 117.294 9.84C117.961 10.2 118.481 10.7333 118.854 11.44C119.241 12.1467 119.434 13 119.434 14V20.5H117.174V14.34C117.174 13.3533 116.927 12.6 116.434 12.08C115.941 11.5467 115.267 11.28 114.414 11.28C113.561 11.28 112.881 11.5467 112.374 12.08C111.881 12.6 111.634 13.3533 111.634 14.34V20.5H109.354V5.7H111.634V10.76C112.021 10.2933 112.507 9.93333 113.094 9.68C113.694 9.42667 114.347 9.3 115.054 9.3ZM123.402 8.02C122.989 8.02 122.642 7.88 122.362 7.6C122.082 7.32 121.942 6.97333 121.942 6.56C121.942 6.14667 122.082 5.8 122.362 5.52C122.642 5.24 122.989 5.1 123.402 5.1C123.802 5.1 124.142 5.24 124.422 5.52C124.702 5.8 124.842 6.14667 124.842 6.56C124.842 6.97333 124.702 7.32 124.422 7.6C124.142 7.88 123.802 8.02 123.402 8.02ZM124.522 9.48V20.5H122.242V9.48H124.522ZM126.656 14.98C126.656 13.8467 126.882 12.8533 127.336 12C127.802 11.1333 128.442 10.4667 129.256 10C130.069 9.53333 131.002 9.3 132.056 9.3C133.389 9.3 134.489 9.62 135.356 10.26C136.236 10.8867 136.829 11.7867 137.136 12.96H134.676C134.476 12.4133 134.156 11.9867 133.716 11.68C133.276 11.3733 132.722 11.22 132.056 11.22C131.122 11.22 130.376 11.5533 129.816 12.22C129.269 12.8733 128.996 13.7933 128.996 14.98C128.996 16.1667 129.269 17.0933 129.816 17.76C130.376 18.4267 131.122 18.76 132.056 18.76C133.376 18.76 134.249 18.18 134.676 17.02H137.136C136.816 18.14 136.216 19.0333 135.336 19.7C134.456 20.3533 133.362 20.68 132.056 20.68C131.002 20.68 130.069 20.4467 129.256 19.98C128.442 19.5 127.802 18.8333 127.336 17.98C126.882 17.1133 126.656 16.1133 126.656 14.98ZM157.408 6.6L153.288 20.5H150.708L147.788 9.98L144.688 20.5L142.128 20.52L138.188 6.6H140.608L143.488 17.92L146.608 6.6H149.168L152.068 17.86L154.968 6.6H157.408ZM169.288 14.72C169.288 15.1333 169.262 15.5067 169.208 15.84H160.788C160.855 16.72 161.182 17.4267 161.768 17.96C162.355 18.4933 163.075 18.76 163.928 18.76C165.155 18.76 166.022 18.2467 166.528 17.22H168.988C168.655 18.2333 168.048 19.0667 167.168 19.72C166.302 20.36 165.222 20.68 163.928 20.68C162.875 20.68 161.928 20.4467 161.088 19.98C160.262 19.5 159.608 18.8333 159.128 17.98C158.662 17.1133 158.428 16.1133 158.428 14.98C158.428 13.8467 158.655 12.8533 159.108 12C159.575 11.1333 160.222 10.4667 161.048 10C161.888 9.53333 162.848 9.3 163.928 9.3C164.968 9.3 165.895 9.52667 166.708 9.98C167.522 10.4333 168.155 11.0733 168.608 11.9C169.062 12.7133 169.288 13.6533 169.288 14.72ZM166.908 14C166.895 13.16 166.595 12.4867 166.008 11.98C165.422 11.4733 164.695 11.22 163.828 11.22C163.042 11.22 162.368 11.4733 161.808 11.98C161.248 12.4733 160.915 13.1467 160.808 14H166.908ZM173.712 11.12C174.099 10.5867 174.625 10.1533 175.292 9.82C175.972 9.47333 176.725 9.3 177.552 9.3C178.525 9.3 179.405 9.53333 180.192 10C180.979 10.4667 181.599 11.1333 182.052 12C182.505 12.8533 182.732 13.8333 182.732 14.94C182.732 16.0467 182.505 17.04 182.052 17.92C181.599 18.7867 180.972 19.4667 180.172 19.96C179.385 20.44 178.512 20.68 177.552 20.68C176.699 20.68 175.939 20.5133 175.272 20.18C174.619 19.8467 174.099 19.42 173.712 18.9V20.5H171.432V5.7H173.712V11.12ZM180.412 14.94C180.412 14.18 180.252 13.5267 179.932 12.98C179.625 12.42 179.212 12 178.692 11.72C178.185 11.4267 177.639 11.28 177.052 11.28C176.479 11.28 175.932 11.4267 175.412 11.72C174.905 12.0133 174.492 12.44 174.172 13C173.865 13.56 173.712 14.22 173.712 14.98C173.712 15.74 173.865 16.4067 174.172 16.98C174.492 17.54 174.905 17.9667 175.412 18.26C175.932 18.5533 176.479 18.7 177.052 18.7C177.639 18.7 178.185 18.5533 178.692 18.26C179.212 17.9533 179.625 17.5133 179.932 16.94C180.252 16.3667 180.412 15.7 180.412 14.94Z" fill="#2D7129"/>
</svg>
