<svg width="168" height="34" viewBox="0 0 168 34" fill="none" xmlns="http://www.w3.org/2000/svg">
<path d="M12.4023 12.4412H25.9325V16.9512H12.4023V12.4412Z" fill="#ECFF8C"/>
<path fill-rule="evenodd" clip-rule="evenodd" d="M22.2657 13.7336C22.2657 18.7385 18.3027 22.7958 13.4142 22.7958C8.52561 22.7958 4.56264 18.7385 4.56264 13.7336C4.56264 8.7286 8.52561 4.67128 13.4142 4.67128C16.9313 4.67128 19.9694 6.77147 21.3971 9.81376L25.859 8.59805C23.8726 3.55727 19.0492 0 13.4142 0C6.00573 0 0 6.14872 0 13.7336C0 21.3184 6.00573 27.4671 13.4142 27.4671C20.8226 27.4671 26.8283 21.3184 26.8283 13.7336C26.8283 13.255 26.7972 12.9071 26.7505 12.4412H22.2683C22.3392 12.903 22.2657 13.2513 22.2657 13.7336Z" fill="#ECFF8C"/>
<path d="M155.848 16.5357C156.306 15.5676 157.011 14.7779 157.962 14.1665C158.93 13.5552 160.068 13.2495 161.376 13.2495C162.649 13.2495 163.787 13.5467 164.789 14.1411C165.791 14.7185 166.572 15.5507 167.133 16.6376C167.71 17.7075 167.999 18.9557 167.999 20.3823C167.999 21.8089 167.71 23.0656 167.133 24.1525C166.572 25.2394 165.783 26.0801 164.764 26.6745C163.762 27.2689 162.632 27.5661 161.376 27.5661C160.051 27.5661 158.905 27.2689 157.936 26.6745C156.985 26.0631 156.289 25.2734 155.848 24.3053V27.3623H154.09V8.51123H155.848V16.5357ZM166.19 20.3823C166.19 19.2275 165.961 18.234 165.502 17.4018C165.061 16.5526 164.449 15.9073 163.668 15.4657C162.887 15.0242 162.004 14.8034 161.019 14.8034C160.068 14.8034 159.193 15.0327 158.395 15.4912C157.614 15.9497 156.994 16.6036 156.535 17.4527C156.077 18.3019 155.848 19.2869 155.848 20.4078C155.848 21.5286 156.077 22.5136 156.535 23.3628C156.994 24.2119 157.614 24.8658 158.395 25.3243C159.193 25.7829 160.068 26.0121 161.019 26.0121C162.004 26.0121 162.887 25.7914 163.668 25.3498C164.449 24.8913 165.061 24.2374 165.502 23.3883C165.961 22.5221 166.19 21.5201 166.19 20.3823Z" fill="#ECFF8C"/>
<path d="M150.571 19.696C150.571 20.3074 150.554 20.7744 150.52 21.0971H138.981C139.032 22.15 139.286 23.0501 139.745 23.7974C140.203 24.5446 140.806 25.1135 141.553 25.5042C142.301 25.8778 143.116 26.0646 143.999 26.0646C145.154 26.0646 146.122 25.7844 146.903 25.2239C147.701 24.6635 148.228 23.9078 148.483 22.9567H150.368C150.028 24.3153 149.298 25.4277 148.177 26.2939C147.073 27.143 145.68 27.5676 143.999 27.5676C142.691 27.5676 141.52 27.2789 140.484 26.7014C139.448 26.107 138.632 25.2749 138.038 24.205C137.461 23.1181 137.172 21.8528 137.172 20.4093C137.172 18.9657 137.461 17.7005 138.038 16.6136C138.615 15.5267 139.422 14.6945 140.458 14.1171C141.494 13.5397 142.674 13.251 143.999 13.251C145.324 13.251 146.479 13.5397 147.464 14.1171C148.466 14.6945 149.23 15.4757 149.756 16.4607C150.3 17.4288 150.571 18.5072 150.571 19.696ZM148.763 19.645C148.78 18.6091 148.567 17.726 148.126 16.9957C147.701 16.2654 147.115 15.7135 146.368 15.3399C145.621 14.9663 144.806 14.7794 143.923 14.7794C142.598 14.7794 141.469 15.204 140.534 16.0532C139.6 16.9023 139.082 18.0996 138.981 19.645H148.763Z" fill="#ECFF8C"/>
<path d="M135.005 9.55664L129.961 27.3632H127.974L123.491 12.1805L118.905 27.3632L116.969 27.3887L112.027 9.55664H113.938L118.014 25.1724L122.574 9.55664H124.561L128.993 25.1724L133.095 9.55664H135.005Z" fill="#ECFF8C"/>
<path d="M103.651 13.1985C104.704 13.1985 105.646 13.4193 106.478 13.8608C107.327 14.3024 107.99 14.9817 108.465 15.8988C108.958 16.7989 109.204 17.9028 109.204 19.2105V27.3623H107.446V19.4143C107.446 17.9028 107.064 16.7479 106.3 15.9497C105.553 15.1516 104.525 14.7525 103.218 14.7525C101.876 14.7525 100.806 15.177 100.008 16.0262C99.2097 16.8753 98.8106 18.1236 98.8106 19.7709V27.3623H97.0273V8.51123H98.8106V15.8224C99.2521 14.9902 99.8975 14.3449 100.747 13.8863C101.613 13.4278 102.581 13.1985 103.651 13.1985Z" fill="#ECFF8C"/>
<path d="M80.334 20.4093C80.334 18.9657 80.6227 17.709 81.2001 16.6391C81.7775 15.5522 82.5757 14.72 83.5947 14.1426C84.6137 13.5482 85.777 13.251 87.0847 13.251C88.8 13.251 90.2096 13.6755 91.3134 14.5247C92.4343 15.3738 93.1561 16.5287 93.4788 17.9892H91.5682C91.3304 16.9872 90.8124 16.206 90.0142 15.6456C89.233 15.0681 88.2565 14.7794 87.0847 14.7794C86.1506 14.7794 85.31 14.9917 84.5627 15.4163C83.8155 15.8409 83.2211 16.4777 82.7795 17.3269C82.355 18.159 82.1427 19.1865 82.1427 20.4093C82.1427 21.632 82.355 22.668 82.7795 23.5172C83.2211 24.3663 83.8155 25.0032 84.5627 25.4277C85.31 25.8523 86.1506 26.0646 87.0847 26.0646C88.2565 26.0646 89.233 25.7844 90.0142 25.2239C90.8124 24.6465 91.3304 23.8483 91.5682 22.8293H93.4788C93.1561 24.2559 92.4343 25.4023 91.3134 26.2684C90.1926 27.1345 88.783 27.5676 87.0847 27.5676C85.777 27.5676 84.6137 27.2789 83.5947 26.7014C82.5757 26.107 81.7775 25.2749 81.2001 24.205C80.6227 23.1181 80.334 21.8528 80.334 20.4093Z" fill="#ECFF8C"/>
<path d="M75.9613 10.8306C75.6047 10.8306 75.299 10.7033 75.0442 10.4485C74.7895 10.1938 74.6621 9.8796 74.6621 9.50598C74.6621 9.13236 74.7895 8.82666 75.0442 8.5889C75.299 8.33416 75.6047 8.20679 75.9613 8.20679C76.3179 8.20679 76.6236 8.33416 76.8784 8.5889C77.1331 8.82666 77.2605 9.13236 77.2605 9.50598C77.2605 9.8796 77.1331 10.1938 76.8784 10.4485C76.6236 10.7033 76.3179 10.8306 75.9613 10.8306ZM76.8529 13.4545V27.3635H75.0697V13.4545H76.8529Z" fill="#ECFF8C"/>
<path d="M59.3847 16.5117C59.8262 15.5776 60.5225 14.8049 61.4736 14.1935C62.4416 13.5652 63.588 13.251 64.9126 13.251C66.1694 13.251 67.2987 13.5482 68.3007 14.1426C69.3197 14.72 70.1094 15.5522 70.6698 16.6391C71.2473 17.709 71.536 18.9572 71.536 20.3838C71.536 21.8104 71.2473 23.0671 70.6698 24.154C70.1094 25.2409 69.3197 26.0816 68.3007 26.676C67.2987 27.2704 66.1694 27.5676 64.9126 27.5676C63.6049 27.5676 62.4671 27.2619 61.4991 26.6505C60.531 26.0221 59.8262 25.2409 59.3847 24.3069V33.9362H57.627V13.4548H59.3847V16.5117ZM69.7273 20.3838C69.7273 19.229 69.498 18.2355 69.0395 17.4033C68.5979 16.5542 67.9865 15.9088 67.2053 15.4672C66.4241 15.0257 65.541 14.8049 64.556 14.8049C63.6049 14.8049 62.7303 15.0342 61.9321 15.4927C61.1509 15.9513 60.531 16.6051 60.0725 17.4542C59.614 18.3034 59.3847 19.2884 59.3847 20.4093C59.3847 21.5302 59.614 22.5152 60.0725 23.3643C60.531 24.2135 61.1509 24.8673 61.9321 25.3258C62.7303 25.7844 63.6049 26.0136 64.556 26.0136C65.541 26.0136 66.4241 25.7929 67.2053 25.3513C67.9865 24.8928 68.5979 24.2389 69.0395 23.3898C69.498 22.5237 69.7273 21.5217 69.7273 20.3838Z" fill="#ECFF8C"/>
<path d="M39.3691 20.3838C39.3691 18.9572 39.6494 17.709 40.2098 16.6391C40.7872 15.5522 41.5769 14.72 42.5789 14.1426C43.5979 13.5482 44.7442 13.251 46.018 13.251C47.3426 13.251 48.4805 13.5567 49.4315 14.1681C50.3995 14.7794 51.0958 15.5607 51.5204 16.5117V13.4548H53.3036V27.3638H51.5204V24.2814C51.0789 25.2324 50.3741 26.0221 49.406 26.6505C48.455 27.2619 47.3171 27.5676 45.9925 27.5676C44.7357 27.5676 43.5979 27.2704 42.5789 26.676C41.5769 26.0816 40.7872 25.2409 40.2098 24.154C39.6494 23.0671 39.3691 21.8104 39.3691 20.3838ZM51.5204 20.4093C51.5204 19.2884 51.2912 18.3034 50.8326 17.4542C50.3741 16.6051 49.7457 15.9513 48.9475 15.4927C48.1663 15.0342 47.3002 14.8049 46.3491 14.8049C45.3641 14.8049 44.481 15.0257 43.6998 15.4672C42.9186 15.9088 42.2987 16.5542 41.8402 17.4033C41.3986 18.2355 41.1778 19.229 41.1778 20.3838C41.1778 21.5217 41.3986 22.5237 41.8402 23.3898C42.2987 24.2389 42.9186 24.8928 43.6998 25.3513C44.481 25.7929 45.3641 26.0136 46.3491 26.0136C47.3002 26.0136 48.1663 25.7844 48.9475 25.3258C49.7457 24.8673 50.3741 24.2135 50.8326 23.3643C51.2912 22.5152 51.5204 21.5301 51.5204 20.4093Z" fill="#ECFF8C"/>
<path d="M32.4805 15.9267C32.8711 15.0606 33.4655 14.3897 34.2637 13.9142C35.0789 13.4387 36.0724 13.2009 37.2442 13.2009V15.0606H36.7602C35.4695 15.0606 34.4335 15.4087 33.6523 16.105C32.8711 16.8013 32.4805 17.9646 32.4805 19.595V27.3647H30.6973V13.4557H32.4805V15.9267Z" fill="#ECFF8C"/>
</svg>
