<svg width="1080" height="1080" viewBox="0 0 1080 1080" fill="none" xmlns="http://www.w3.org/2000/svg">
<rect width="1080" height="1080" fill="black"/>
<path d="M303.393 316.3H750.397C835.477 311.647 877.795 394.678 888.32 436.775V679.386C891.643 718.437 804.403 834.757 707.192 712.621C559.297 526.805 402.543 640.336 351.583 712.621C258.559 820.633 168.797 734.223 174.61 679.386V455.884C177.933 354.852 261.85 320.731 303.393 316.3Z" fill="white"/>
<path d="M596.725 589.653V620.395C644.915 634.52 698.921 677.725 724.677 715.114C745.283 745.025 779.791 756.934 794.47 759.149V589.653C768.713 454.223 604.202 492.442 596.725 589.653Z" fill="black"/>
<path d="M344.969 502.413H463.783V617.072C442.18 623.165 387.676 648.977 342.477 703.481C297.278 757.986 271.023 762.196 263.545 757.487V592.977C263.545 533.819 317.828 507.952 344.969 502.413Z" fill="black"/>
<path fill-rule="evenodd" clip-rule="evenodd" d="M118.977 683.014C120.318 701.152 128.806 723.644 143.735 745.352C158.696 767.107 179.426 787.039 203.775 800.208C228.004 813.313 255.623 819.646 285.041 814.831C314.321 810.039 346.754 793.976 380.34 759.964C421.994 708.777 467.648 672.435 519.224 668.422C571.812 664.331 624.488 694.144 678.904 760.464C704.998 792.266 760.597 817.724 814.474 813.777C840.957 811.836 866.458 802.822 887.715 784.474C908.676 766.381 926.465 738.388 936.545 696.738V431.823C930.301 379.573 883.932 273.452 745.771 263.956H295.12C273.881 263.956 232.165 273.557 194.59 302.694C157.722 331.282 124.437 378.971 118.977 456.405V683.014ZM746.277 249H295.12C246.099 249 115.321 291.706 104.021 455.885V683.541C109.834 769.95 249.419 914.52 391.496 769.95C473.752 668.585 560.992 640.336 667.342 769.95C726.108 841.571 909.123 878.793 951.5 698.496V430.959C945.13 374.46 895.168 258.97 746.277 249Z" fill="white"/>
<path fill-rule="evenodd" clip-rule="evenodd" d="M750.805 331.255H304.219C285.853 333.369 257.803 342.116 234.129 361.45C210.661 380.615 191.134 410.403 189.565 456.136V680.177L189.482 680.963C188.475 690.464 191.597 702.783 199.32 714.833C206.945 726.732 218.367 737.242 232.153 743.426C245.747 749.523 261.86 751.538 279.689 746.347C297.537 741.151 318.096 728.43 339.793 703.391C366.913 665.224 421.507 616.364 489.801 601.231C524.471 593.549 562.59 594.604 601.903 610.158C641.123 625.675 680.66 655.27 718.893 703.307C741.864 732.168 762.991 745.364 780.73 749.97C798.231 754.515 814.21 751.168 828.176 743.385C842.385 735.467 854.313 723.009 862.478 710.193C871.023 696.781 873.839 685.596 873.418 680.654L873.364 680.021V438.669C868.275 419.481 856.141 391.526 836.121 368.922C815.766 345.94 788.048 329.219 751.213 331.233L750.805 331.255ZM888.32 436.775C877.795 394.678 835.477 311.647 750.397 316.3H303.393C261.85 320.731 177.933 354.852 174.61 455.884V679.386C168.797 734.223 258.559 820.633 351.583 712.621C402.543 640.336 559.297 526.805 707.192 712.621C804.403 834.757 891.643 718.437 888.32 679.386V436.775Z" fill="white"/>
<path fill-rule="evenodd" clip-rule="evenodd" d="M541.053 415.172C554.819 415.172 565.979 426.332 565.979 440.098V528.17C565.979 541.936 554.819 553.095 541.053 553.095H423.07C409.304 553.095 398.145 541.936 398.145 528.17C398.145 514.403 409.304 503.244 423.07 503.244H516.127V440.098C516.127 426.332 527.287 415.172 541.053 415.172Z" fill="black"/>
<path d="M409.779 452.561C409.779 478.717 388.575 499.92 362.42 499.92C336.264 499.92 315.061 478.717 315.061 452.561C315.061 426.405 336.264 405.202 362.42 405.202C388.575 405.202 409.779 426.405 409.779 452.561Z" fill="black"/>
<path d="M743.783 452.561C743.783 478.717 722.579 499.92 696.424 499.92C670.268 499.92 649.064 478.717 649.064 452.561C649.064 426.405 670.268 405.202 696.424 405.202C722.579 405.202 743.783 426.405 743.783 452.561Z" fill="black"/>
<path fill-rule="evenodd" clip-rule="evenodd" d="M770.54 401.977C773.239 395.645 780.56 392.7 786.892 395.399C808.634 404.666 843.656 438.653 833.357 501.923C832.251 508.716 825.847 513.327 819.053 512.221C812.26 511.115 807.649 504.711 808.755 497.918C817.066 446.861 789.164 423.463 777.119 418.329C770.787 415.63 767.841 408.309 770.54 401.977Z" fill="black"/>
</svg>
